<?xml version="1.0" standalone="no"?>
<!DOCTYPE svg PUBLIC "-//W3C//DTD SVG 20010904//EN"
 "http://www.w3.org/TR/2001/REC-SVG-20010904/DTD/svg10.dtd">
<svg version="1.0" xmlns="http://www.w3.org/2000/svg"
 width="468pt" height="238pt" viewBox="0 0 468 238"
 preserveAspectRatio="xMidYMid meet">
<metadata>
Created by potrace 1.9, written by Peter Selinger 2001-2010
</metadata>
<g transform="translate(0,238) scale(0.165957,-0.165957)"
fill="#000000" stroke="none">
<path d="M536 1117 c-25 -18 -17 -49 16 -65 18 -9 29 -23 33 -45 4 -18 5 -186
3 -374 -3 -336 -3 -342 -25 -372 -14 -18 -23 -45 -23 -66 0 -34 1 -35 40 -35
92 0 211 42 257 92 55 58 57 77 61 445 l4 341 28 12 c39 16 46 41 20 62 -19
16 -46 18 -209 18 -139 0 -192 -3 -205 -13z"/>
<path d="M1315 1092 c-5 -29 9 -105 54 -303 34 -145 61 -270 61 -276 0 -9 -21
-13 -74 -13 -68 0 -74 -2 -80 -22 -12 -47 -10 -48 83 -48 l89 0 16 -65 c21
-83 21 -79 -14 -112 -34 -32 -33 -60 4 -68 11 -3 106 -4 210 -3 166 3 190 5
200 20 9 14 4 23 -25 50 -32 30 -38 45 -67 168 -18 74 -63 263 -100 420 l-67
285 -142 3 -141 3 -7 -39z"/>
<path d="M2101 1108 c-104 -51 -165 -153 -165 -279 0 -147 64 -226 253 -315
147 -69 162 -77 182 -103 40 -50 13 -129 -53 -158 -34 -15 -38 -21 -38 -55 0
-43 1 -43 81 -24 107 25 200 99 241 194 30 67 30 182 0 244 -43 87 -133 153
-296 218 -81 32 -136 86 -136 133 0 39 36 91 70 102 14 4 20 15 20 36 0 29 0
29 -57 29 -38 -1 -73 -8 -102 -22z"/>
<path d="M2310 1105 c0 -20 10 -30 49 -49 67 -34 118 -97 138 -169 18 -64 40
-84 73 -67 19 10 20 21 20 160 l0 150 -27 0 c-14 0 -35 -8 -45 -17 -18 -16
-22 -16 -67 0 -27 9 -69 17 -95 17 -42 0 -46 -2 -46 -25z"/>
<path d="M1196 657 c-96 -355 -104 -373 -173 -402 -38 -16 -44 -48 -14 -65 21
-11 219 -14 245 -4 28 11 19 48 -16 69 -18 10 -36 23 -40 29 -16 24 -6 84 53
297 60 218 60 223 49 284 -6 34 -15 66 -18 72 -4 6 -43 -120 -86 -280z"/>
<path d="M324 522 c-70 -45 -96 -110 -73 -190 17 -60 79 -123 144 -145 73 -25
85 -23 85 16 0 27 -6 36 -26 46 l-26 12 45 42 c55 52 67 99 40 154 -24 48 -61
74 -114 80 -32 3 -52 -1 -75 -15z"/>
<path d="M1951 511 c-19 -19 -21 -33 -21 -162 0 -77 5 -149 10 -160 14 -25 42
-24 65 1 22 25 32 25 87 1 24 -10 63 -22 86 -26 l42 -7 0 41 c0 27 -4 41 -13
41 -24 0 -102 59 -127 96 -13 20 -34 66 -47 103 -27 81 -52 102 -82 72z"/>
</g>
</svg>
